<?xml version="1.0" ?><!DOCTYPE svg  PUBLIC '-//W3C//DTD SVG 1.1//EN'  'http://www.w3.org/Graphics/SVG/1.1/DTD/svg11.dtd'><svg enable-background="new 0 0 500 500" height="500px" id="Layer_1" version="1.1" viewBox="0 0 500 500" width="500px" xml:space="preserve" xmlns="http://www.w3.org/2000/svg" xmlns:xlink="http://www.w3.org/1999/xlink"><path clip-rule="evenodd" d="M227.787,136.432c0,12.536,10.177,22.713,22.713,22.713  c12.537,0,22.715-10.177,22.715-22.713s-10.178-22.713-22.715-22.713C237.964,113.718,227.787,123.896,227.787,136.432z   M227.787,327.228c0-12.539,10.177-22.715,22.713-22.715c12.537,0,22.715,10.176,22.715,22.715  c0,12.537-10.178,22.711-22.715,22.711C237.964,349.938,227.787,339.765,227.787,327.228z M250.5,268.172  c-32.615,0-59.056,26.441-59.056,59.056c0,32.616,26.441,59.057,59.056,59.057c32.614,0,59.056-26.44,59.056-59.057  C309.556,294.613,283.114,268.172,250.5,268.172z M82.418,431.711c0,20.078,16.264,36.34,36.343,36.34h263.48  c20.079,0,36.34-16.262,36.34-36.34V68.29c0-20.077-16.261-36.34-36.34-36.34h-263.48c-20.079,0-36.343,16.264-36.343,36.34V431.711  z M212.338,239.735c10.728-5.09,18.173-16.176,18.173-28.894c0-9.813-4.446-18.535-11.446-24.35  c-16.628-10.448-27.622-28.978-27.622-50.06c0-32.615,26.441-59.056,59.056-59.056c32.614,0,59.056,26.441,59.056,59.056  c0,20.172-10.179,38.067-25.622,48.697c-8.086,5.728-13.268,15.177-13.268,25.807c0,12.807,7.543,23.892,18.448,28.887l0.726,0.365  c33.069,14.994,56.056,48.338,56.056,87.04c0,52.694-42.702,95.396-95.396,95.396c-52.694,0-95.398-42.702-95.398-95.396  C155.102,288.063,178.633,254.456,212.338,239.735z" fill="#010101" fill-rule="evenodd"/></svg>